# xmcd
#
# Track frame offsets: 
#        150
#        33051
#        70267
#        84985
#        109778
#        131992
#        164516
#        178315
#        196203
#        224585
#
# Disc length: 3440 seconds
#
# Revision: 1
# Processed by: cddbd v1.5.2PL0 Copyright (c) Steve Scherf et al.
# Submitted via: ExactAudioCopy v0.99pb4
#
DISCID=910d6e0a
DTITLE=Nymark Collective with Kristin Asbjørnsen - Bessie Smith Revisi
DTITLE=ted
DYEAR=2008
DGENRE=
TTITLE0=The Devil's Gonna Get You
TTITLE1=Aggravatin' Papa
TTITLE2=Oh Daddy Blues
TTITLE3=Nobody Knows You When You're Down and Out
TTITLE4=Dont't Cry Baby
TTITLE5=Today
TTITLE6=Interlude
TTITLE7=Mam'selle Marie
TTITLE8=Mourn You Mourners
TTITLE9=Baby Won't You Please Come Home
EXTD=
EXTT0=
EXTT1=
EXTT2=
EXTT3=
EXTT4=
EXTT5=
EXTT6=
EXTT7=
EXTT8=
EXTT9=
PLAYORDER=
